<svg width="12" height="12" viewBox="0 0 12 12" fill="none" xmlns="http://www.w3.org/2000/svg">
<path d="M6.51143 3.89477C6.22572 3.89477 5.96757 3.94489 5.73699 4.04514C5.50642 4.14038 5.31093 4.28324 5.15053 4.47371C4.99013 4.65918 4.86732 4.88725 4.78211 5.15792C4.6969 5.42359 4.65429 5.72434 4.65429 6.06018C4.65429 6.50129 4.72196 6.88474 4.8573 7.21056C4.99765 7.53637 5.20316 7.787 5.47384 7.96244C5.74953 8.13787 6.09288 8.22559 6.50391 8.22559C6.7395 8.22559 6.96256 8.20554 7.17308 8.16544C7.38361 8.12535 7.58912 8.07522 7.78963 8.01507V8.60153C7.58912 8.67672 7.38111 8.73186 7.16557 8.76695C6.95504 8.80206 6.7019 8.81958 6.40617 8.81958C5.8598 8.81958 5.40366 8.7068 5.03775 8.48123C4.67183 8.25567 4.39615 7.93486 4.21068 7.51883C4.03023 7.10279 3.94 6.61407 3.94 6.05266C3.94 5.64665 3.99514 5.27572 4.10542 4.93988C4.2207 4.60404 4.38612 4.31331 4.60166 4.0677C4.82221 3.82208 5.09288 3.63411 5.41369 3.50379C5.73449 3.36845 6.10291 3.30078 6.51895 3.30078C6.79464 3.30078 7.0603 3.32835 7.31594 3.38349C7.57158 3.43862 7.79965 3.51632 8.00015 3.61657L7.72948 4.188C7.56406 4.11281 7.3786 4.04514 7.17308 3.98499C6.97258 3.92484 6.75203 3.89477 6.51143 3.89477Z" fill="#77878B"/>
<path d="M6 11C8.76142 11 11 8.76142 11 6C11 3.23858 8.76142 1 6 1C3.23858 1 1 3.23858 1 6C1 8.76142 3.23858 11 6 11Z" stroke="#77878B"/>
</svg>
