<svg width="110" height="30" viewBox="0 0 110 30" fill="none" xmlns="http://www.w3.org/2000/svg">
<rect width="110" height="30" rx="10" fill="#C71B1B" fill-opacity="0.8"/>
<path d="M42.3939 20L41.5619 17.232H37.3859L36.5539 20H35.0179L38.5539 8.976H40.4739L43.9939 20H42.3939ZM37.7539 16H41.1939L39.4819 10.24L37.7539 16ZM51.9338 11.568L49.3738 15.472L52.2378 20H50.4938L48.1578 16.112H47.0858V20H45.6138V11.568H47.0858V14.96H48.1898L50.3178 11.568H51.9338ZM60.2306 18.816H61.5106V22.4H60.3106L60.0706 20H53.9106V11.568H55.3826V18.8H58.7586V11.568H60.2306V18.816ZM64.742 11.568V20H63.27V11.568H64.742ZM63.99 7.52C64.2993 7.52 64.55 7.616 64.742 7.808C64.934 8 65.03 8.24 65.03 8.528C65.03 8.816 64.934 9.056 64.742 9.248C64.55 9.42933 64.2993 9.52 63.99 9.52C63.6913 9.52 63.446 9.42933 63.254 9.248C63.062 9.056 62.966 8.816 62.966 8.528C62.966 8.24 63.062 8 63.254 7.808C63.446 7.616 63.6913 7.52 63.99 7.52ZM73.5616 11.568V20H72.0896V16.768H70.2496L68.4736 20H66.8256L68.8416 16.432C67.8496 15.9627 67.3536 15.2 67.3536 14.144C67.3536 13.312 67.6523 12.6773 68.2496 12.24C68.847 11.792 69.6843 11.568 70.7616 11.568H73.5616ZM72.0896 15.648V12.704H70.7296C70.1216 12.704 69.663 12.8213 69.3536 13.056C69.055 13.28 68.9056 13.6427 68.9056 14.144C68.9056 14.6773 69.0443 15.0613 69.3216 15.296C69.6096 15.5307 70.0683 15.648 70.6976 15.648H72.0896Z" fill="white"/>
</svg>
