<svg width="110" height="30" viewBox="0 0 110 30" fill="none" xmlns="http://www.w3.org/2000/svg">
<rect width="110" height="30" rx="10" fill="#102FD2" fill-opacity="0.8"/>
<path d="M30.2131 20V14.832H25.5731V20H24.0531V8.976H25.5731V13.584H30.2131V8.976H31.7331V20H30.2131ZM38.0161 11.376C39.2001 11.376 40.1175 11.7707 40.7681 12.56C41.4295 13.3493 41.7601 14.4213 41.7601 15.776C41.7601 16.6507 41.6108 17.424 41.3121 18.096C41.0135 18.7573 40.5815 19.2747 40.0161 19.648C39.4508 20.0107 38.7788 20.192 38.0001 20.192C36.8161 20.192 35.8935 19.7973 35.2321 19.008C34.5708 18.2187 34.2401 17.1467 34.2401 15.792C34.2401 14.9173 34.3895 14.1493 34.6881 13.488C34.9868 12.816 35.4188 12.2987 35.9841 11.936C36.5495 11.5627 37.2268 11.376 38.0161 11.376ZM38.0161 12.56C36.5548 12.56 35.8241 13.6373 35.8241 15.792C35.8241 17.936 36.5495 19.008 38.0001 19.008C39.4508 19.008 40.1761 17.9307 40.1761 15.776C40.1761 13.632 39.4561 12.56 38.0161 12.56ZM48.6399 15.424C50.0692 15.5627 50.7839 16.224 50.7839 17.408C50.7839 18.2933 50.4585 18.9493 49.8079 19.376C49.1679 19.792 48.3092 20 47.2319 20H44.1919V11.68C45.1839 11.4773 46.1065 11.376 46.9599 11.376C48.0052 11.376 48.8319 11.5733 49.4399 11.968C50.0479 12.3627 50.3519 12.928 50.3519 13.664C50.3519 14.144 50.2079 14.5333 49.9199 14.832C49.6319 15.1307 49.2052 15.328 48.6399 15.424ZM46.9759 12.512C46.5279 12.512 46.0905 12.544 45.6639 12.608V14.992H47.2479C47.7599 14.992 48.1545 14.896 48.4319 14.704C48.7092 14.512 48.8479 14.1867 48.8479 13.728C48.8479 13.3013 48.6932 12.992 48.3839 12.8C48.0745 12.608 47.6052 12.512 46.9759 12.512ZM47.2319 18.848C47.8612 18.848 48.3519 18.7413 48.7039 18.528C49.0559 18.3147 49.2319 17.9307 49.2319 17.376C49.2319 16.9173 49.0825 16.5867 48.7839 16.384C48.4852 16.1813 47.9785 16.08 47.2639 16.08H45.6639V18.848H47.2319ZM59.7831 20H58.3271V16.192C58.3271 15.552 58.3485 14.944 58.3911 14.368C58.4338 13.792 58.4711 13.4133 58.5031 13.232L54.9671 20H53.2231V11.568H54.6791V15.376C54.6791 15.9413 54.6578 16.528 54.6151 17.136C54.5725 17.7333 54.5405 18.1173 54.5191 18.288L58.0071 11.568H59.7831V20ZM67.7929 20V16.288H64.2889V20H62.8169V11.568H64.2889V15.104H67.7929V11.568H69.2649V20H67.7929ZM78.6213 11.568L76.0613 15.472L78.9253 20H77.1813L74.8453 16.112H73.7733V20H72.3013V11.568H73.7733V14.96H74.8773L77.0053 11.568H78.6213ZM86.0438 18.032C86.0438 18.3733 86.1024 18.6293 86.2198 18.8C86.3371 18.96 86.5131 19.0827 86.7478 19.168L86.4118 20.192C85.9744 20.1387 85.6224 20.016 85.3558 19.824C85.0891 19.632 84.8918 19.3333 84.7638 18.928C84.1984 19.7707 83.3611 20.192 82.2518 20.192C81.4198 20.192 80.7638 19.9573 80.2838 19.488C79.8038 19.0187 79.5638 18.4053 79.5638 17.648C79.5638 16.752 79.8838 16.064 80.5238 15.584C81.1744 15.104 82.0918 14.864 83.2758 14.864H84.5718V14.24C84.5718 13.6427 84.4278 13.216 84.1398 12.96C83.8518 12.704 83.4091 12.576 82.8118 12.576C82.1931 12.576 81.4358 12.7253 80.5398 13.024L80.1718 11.952C81.2171 11.568 82.1878 11.376 83.0838 11.376C84.0758 11.376 84.8171 11.6213 85.3078 12.112C85.7984 12.592 86.0438 13.28 86.0438 14.176V18.032ZM82.5878 19.088C83.4304 19.088 84.0918 18.6507 84.5718 17.776V15.84H83.4678C81.9104 15.84 81.1318 16.416 81.1318 17.568C81.1318 18.0693 81.2544 18.448 81.4998 18.704C81.7451 18.96 82.1078 19.088 82.5878 19.088Z" fill="white"/>
</svg>
