<svg width="340" height="80" viewBox="0 0 340 80" fill="none" xmlns="http://www.w3.org/2000/svg">
<path d="M11.6438 41.933V27.1501M31.8265 11.9408V11.9408C22.4269 7.54395 11.6438 14.4044 11.6438 24.7816V27.1501M11.6438 27.1501H31.8265M45.7991 7.92322V32.474C45.7991 35.1385 47.3714 37.552 49.8086 38.6288V38.6288C50.6652 39.0072 51.5913 39.2027 52.5277 39.2027H64.557M112 7.92322L114.589 32.2894L115.167 36.4482C115.902 41.7274 123.5 41.6863 124.554 36.4615V36.4615C125.569 31.4294 132.845 31.2891 133.719 36.3475V36.3475C134.613 41.5166 142.054 41.4616 142.871 36.2798L143.5 32.2894L146 7.92322M90.4729 10.6179L90.6256 10.6743C94.6676 12.168 97.6035 15.7073 98.3245 19.9557L98.7263 22.323C99.2605 25.4707 98.8524 28.7061 97.5533 31.6225L96.8117 33.2874C95.7788 35.6064 94.0307 37.5339 91.8234 38.7879L91.6443 38.8896C88.2977 40.7908 84.2221 40.8928 80.7846 39.1613V39.1613C77.8731 37.6947 75.7204 35.062 74.8613 31.9172L74.4638 30.4618C73.8685 28.2825 73.7767 25.9964 74.1953 23.7764L75.0275 19.3634C75.7644 15.4558 78.4485 12.1965 82.1422 10.7238V10.7238C84.8105 9.65986 87.7783 9.62213 90.4729 10.6179Z" stroke="#2F3537" stroke-width="7"/>
<path d="M181.5 38.5H168.541C163.396 38.5 159.226 32.9754 159.226 26.1604M159.226 26.1604V25.013C159.226 19.8288 161.224 15.0032 164.523 12.216L165.405 11.4717C168.309 9.01846 171.98 8.80307 175.037 10.9066L176.539 11.9399C177.917 12.8883 178.942 14.5419 179.377 16.5168C180.439 21.3387 177.709 26.1604 173.917 26.1604H159.226Z" stroke="#2F3537" stroke-width="7"/>
<path d="M293.864 38.6933H280.905C275.761 38.6933 271.59 33.1687 271.59 26.3537M271.59 26.3537V25.2063C271.59 20.0221 273.588 15.1965 276.888 12.4093L277.769 11.665C280.673 9.21177 284.345 8.99637 287.402 11.0999L288.903 12.1332C290.281 13.0816 291.307 14.7352 291.742 16.7101C292.803 21.532 290.073 26.3537 286.281 26.3537H271.59ZM197.169 43.4438C197.169 32.9833 197.169 25.0585 197.169 19.1162M197.169 7.70078C197.169 12.3484 197.169 4.36614 197.169 19.1162M197.169 19.1162L199.177 15.736C202.881 9.49912 212.088 10.0659 215 16.7101V16.7101M240.757 0.820725V19.1162M240.757 43.4439V38.6933M240.757 38.6933L246.877 40.1484C252.67 41.5256 258.505 38.0372 260.033 32.2831L260.095 32.0528C260.644 29.9843 260.532 27.7954 259.774 25.7939V25.7939C258.274 21.837 254.496 19.2093 250.265 19.1806L240.757 19.1162M240.757 38.6933V19.1162M323.614 0V18.2954M323.614 42.6231V37.8726M323.614 37.8726L317.128 39.7684C311.642 41.3715 305.858 38.4219 303.934 33.0406V33.0406C302.98 30.3694 303.114 27.4296 304.31 24.8571L304.368 24.7332C306.193 20.8069 310.129 18.2954 314.459 18.2954H323.614M323.614 37.8726V18.2954" stroke="#2F3537" stroke-width="7"/>
<path d="M42.845 62.2076H41.765L38.535 58.5876V62.2076H37.635V55.0676H38.535V58.5276L41.685 55.0676H42.705L39.605 58.5376L42.845 62.2076ZM55.8567 55.0676C56.45 55.0676 56.9467 55.1243 57.3467 55.2376C57.7533 55.351 58.0567 55.5376 58.2567 55.7976C58.4633 56.0576 58.5667 56.4043 58.5667 56.8376C58.5667 57.1176 58.5133 57.3676 58.4067 57.5876C58.3067 57.801 58.1533 57.981 57.9467 58.1276C57.7467 58.2676 57.5 58.3643 57.2067 58.4176V58.4676C57.5067 58.5143 57.7767 58.601 58.0167 58.7276C58.2633 58.8543 58.4567 59.0343 58.5967 59.2676C58.7367 59.501 58.8067 59.8043 58.8067 60.1776C58.8067 60.611 58.7067 60.981 58.5067 61.2876C58.3067 61.5876 58.02 61.8176 57.6467 61.9776C57.28 62.131 56.84 62.2076 56.3267 62.2076H53.8167V55.0676H55.8567ZM56.0367 58.1076C56.65 58.1076 57.07 58.011 57.2967 57.8176C57.5233 57.6176 57.6367 57.3243 57.6367 56.9376C57.6367 56.5443 57.4967 56.2643 57.2167 56.0976C56.9433 55.9243 56.5033 55.8376 55.8967 55.8376H54.7167V58.1076H56.0367ZM54.7167 58.8576V61.4476H56.1567C56.79 61.4476 57.23 61.3243 57.4767 61.0776C57.7233 60.831 57.8467 60.5076 57.8467 60.1076C57.8467 59.8543 57.79 59.6343 57.6767 59.4476C57.57 59.261 57.3867 59.1176 57.1267 59.0176C56.8733 58.911 56.5267 58.8576 56.0867 58.8576H54.7167ZM72.3306 62.2076H69.7506V61.6876L70.5906 61.4976V55.7876L69.7506 55.5876V55.0676H72.3306V55.5876L71.4906 55.7876V61.4976L72.3306 61.6876V62.2076ZM85.9693 62.2076H85.0693V55.8576H82.8393V55.0676H88.1893V55.8576H85.9693V62.2076ZM104.476 62.2076H103.396L100.166 58.5876V62.2076H99.2659V55.0676H100.166V58.5276L103.316 55.0676H104.336L101.236 58.5376L104.476 62.2076ZM121.482 58.6276C121.482 59.181 121.412 59.6843 121.272 60.1376C121.132 60.5843 120.922 60.971 120.642 61.2976C120.369 61.6243 120.026 61.8743 119.612 62.0476C119.206 62.221 118.732 62.3076 118.192 62.3076C117.632 62.3076 117.146 62.221 116.732 62.0476C116.319 61.8676 115.976 61.6176 115.702 61.2976C115.429 60.971 115.226 60.581 115.092 60.1276C114.959 59.6743 114.892 59.171 114.892 58.6176C114.892 57.8843 115.012 57.2443 115.252 56.6976C115.492 56.151 115.856 55.7243 116.342 55.4176C116.836 55.111 117.456 54.9576 118.202 54.9576C118.916 54.9576 119.516 55.111 120.002 55.4176C120.489 55.7176 120.856 56.1443 121.102 56.6976C121.356 57.2443 121.482 57.8876 121.482 58.6276ZM115.842 58.6276C115.842 59.2276 115.926 59.7443 116.092 60.1776C116.259 60.611 116.516 60.9443 116.862 61.1776C117.216 61.411 117.659 61.5276 118.192 61.5276C118.732 61.5276 119.172 61.411 119.512 61.1776C119.859 60.9443 120.116 60.611 120.282 60.1776C120.449 59.7443 120.532 59.2276 120.532 58.6276C120.532 57.7276 120.346 57.0243 119.972 56.5176C119.599 56.0043 119.009 55.7476 118.202 55.7476C117.662 55.7476 117.216 55.8643 116.862 56.0976C116.516 56.3243 116.259 56.6543 116.092 57.0876C115.926 57.5143 115.842 58.0276 115.842 58.6276ZM135.105 55.0676C135.698 55.0676 136.195 55.1243 136.595 55.2376C137.001 55.351 137.305 55.5376 137.505 55.7976C137.711 56.0576 137.815 56.4043 137.815 56.8376C137.815 57.1176 137.761 57.3676 137.655 57.5876C137.555 57.801 137.401 57.981 137.195 58.1276C136.995 58.2676 136.748 58.3643 136.455 58.4176V58.4676C136.755 58.5143 137.025 58.601 137.265 58.7276C137.511 58.8543 137.705 59.0343 137.845 59.2676C137.985 59.501 138.055 59.8043 138.055 60.1776C138.055 60.611 137.955 60.981 137.755 61.2876C137.555 61.5876 137.268 61.8176 136.895 61.9776C136.528 62.131 136.088 62.2076 135.575 62.2076H133.065V55.0676H135.105ZM135.285 58.1076C135.898 58.1076 136.318 58.011 136.545 57.8176C136.771 57.6176 136.885 57.3243 136.885 56.9376C136.885 56.5443 136.745 56.2643 136.465 56.0976C136.191 55.9243 135.751 55.8376 135.145 55.8376H133.965V58.1076H135.285ZM133.965 58.8576V61.4476H135.405C136.038 61.4476 136.478 61.3243 136.725 61.0776C136.971 60.831 137.095 60.5076 137.095 60.1076C137.095 59.8543 137.038 59.6343 136.925 59.4476C136.818 59.261 136.635 59.1176 136.375 59.0176C136.121 58.911 135.775 58.8576 135.335 58.8576H133.965ZM149.579 55.0676H150.419V58.9876C150.419 59.1543 150.415 59.3376 150.409 59.5376C150.409 59.731 150.405 59.9243 150.399 60.1176C150.392 60.311 150.382 60.4843 150.369 60.6376C150.362 60.7843 150.355 60.8976 150.349 60.9776H150.389L154.319 55.0676H155.319V62.2076H154.479V58.3276C154.479 58.1476 154.482 57.9543 154.489 57.7476C154.495 57.5343 154.502 57.331 154.509 57.1376C154.522 56.9376 154.532 56.761 154.539 56.6076C154.545 56.4543 154.552 56.341 154.559 56.2676H154.519L150.579 62.2076H149.579V55.0676ZM172.114 52.8476C172.088 53.181 172.004 53.461 171.864 53.6876C171.731 53.9143 171.531 54.0843 171.264 54.1976C170.998 54.311 170.651 54.3676 170.224 54.3676C169.791 54.3676 169.441 54.311 169.174 54.1976C168.914 54.0843 168.724 53.9176 168.604 53.6976C168.484 53.471 168.411 53.1876 168.384 52.8476H169.204C169.238 53.2076 169.331 53.451 169.484 53.5776C169.644 53.6976 169.898 53.7576 170.244 53.7576C170.551 53.7576 170.791 53.6943 170.964 53.5676C171.144 53.4343 171.251 53.1943 171.284 52.8476H172.114ZM167.254 55.0676H168.094V58.9876C168.094 59.1543 168.091 59.3376 168.084 59.5376C168.084 59.731 168.081 59.9243 168.074 60.1176C168.068 60.311 168.058 60.4843 168.044 60.6376C168.038 60.7843 168.031 60.8976 168.024 60.9776H168.064L171.994 55.0676H172.994V62.2076H172.154V58.3276C172.154 58.1476 172.158 57.9543 172.164 57.7476C172.171 57.5343 172.178 57.331 172.184 57.1376C172.198 56.9376 172.208 56.761 172.214 56.6076C172.221 56.4543 172.228 56.341 172.234 56.2676H172.194L168.254 62.2076H167.254V55.0676ZM200.101 62.2076L197.751 55.9476H197.711C197.725 56.081 197.735 56.251 197.741 56.4576C197.755 56.6643 197.765 56.891 197.771 57.1376C197.778 57.3776 197.781 57.6243 197.781 57.8776V62.2076H196.951V55.0676H198.281L200.481 60.9176H200.521L202.761 55.0676H204.081V62.2076H203.191V57.8176C203.191 57.5843 203.195 57.3543 203.201 57.1276C203.208 56.8943 203.218 56.6776 203.231 56.4776C203.245 56.271 203.255 56.0976 203.261 55.9576H203.221L200.841 62.2076H200.101ZM220.504 62.2076L219.644 59.9976H216.814L215.964 62.2076H215.054L217.844 55.0376H218.654L221.434 62.2076H220.504ZM218.574 57.0376C218.554 56.9843 218.52 56.8876 218.474 56.7476C218.427 56.6076 218.38 56.4643 218.334 56.3176C218.294 56.1643 218.26 56.0476 218.234 55.9676C218.2 56.101 218.164 56.2376 218.124 56.3776C218.09 56.511 218.054 56.6343 218.014 56.7476C217.98 56.861 217.95 56.9576 217.924 57.0376L217.114 59.1976H219.374L218.574 57.0376ZM236.44 55.0676V55.8676H233.31V62.2076H232.41V55.0676H236.44ZM251.431 62.2076L250.571 59.9976H247.741L246.891 62.2076H245.981L248.771 55.0376H249.581L252.361 62.2076H251.431ZM249.501 57.0376C249.481 56.9843 249.448 56.8876 249.401 56.7476C249.355 56.6076 249.308 56.4643 249.261 56.3176C249.221 56.1643 249.188 56.0476 249.161 55.9676C249.128 56.101 249.091 56.2376 249.051 56.3776C249.018 56.511 248.981 56.6343 248.941 56.7476C248.908 56.861 248.878 56.9576 248.851 57.0376L248.041 59.1976H250.301L249.501 57.0376ZM267.558 56.7376C267.558 57.2243 267.405 57.611 267.098 57.8976C266.791 58.1776 266.381 58.3576 265.868 58.4376V58.4776C266.468 58.5576 266.925 58.7443 267.238 59.0376C267.551 59.331 267.708 59.7143 267.708 60.1876C267.708 60.6076 267.601 60.9776 267.388 61.2976C267.175 61.611 266.855 61.8576 266.428 62.0376C266.001 62.2176 265.468 62.3076 264.828 62.3076C264.441 62.3076 264.071 62.2776 263.718 62.2176C263.371 62.1643 263.048 62.0643 262.748 61.9176V61.0976C262.955 61.1976 263.175 61.2843 263.408 61.3576C263.648 61.4243 263.888 61.4776 264.128 61.5176C264.368 61.551 264.598 61.5676 264.818 61.5676C265.458 61.5676 265.941 61.4476 266.268 61.2076C266.601 60.9676 266.768 60.6276 266.768 60.1876C266.768 59.7343 266.575 59.4043 266.188 59.1976C265.801 58.991 265.261 58.8876 264.568 58.8876H263.548V58.1376H264.518C264.991 58.1376 265.381 58.0843 265.688 57.9776C266.001 57.871 266.235 57.721 266.388 57.5276C266.548 57.3276 266.628 57.0943 266.628 56.8276C266.628 56.4676 266.495 56.191 266.228 55.9976C265.961 55.8043 265.615 55.7076 265.188 55.7076C264.741 55.7076 264.368 55.7643 264.068 55.8776C263.775 55.991 263.488 56.1376 263.208 56.3176L262.778 55.7076C262.965 55.5676 263.178 55.4443 263.418 55.3376C263.665 55.2243 263.938 55.1343 264.238 55.0676C264.538 55.001 264.858 54.9676 265.198 54.9676C265.711 54.9676 266.141 55.0443 266.488 55.1976C266.841 55.351 267.108 55.561 267.288 55.8276C267.468 56.0876 267.558 56.391 267.558 56.7376ZM279.227 55.0676H280.067V58.9876C280.067 59.1543 280.064 59.3376 280.057 59.5376C280.057 59.731 280.054 59.9243 280.047 60.1176C280.04 60.311 280.03 60.4843 280.017 60.6376C280.01 60.7843 280.004 60.8976 279.997 60.9776H280.037L283.967 55.0676H284.967V62.2076H284.127V58.3276C284.127 58.1476 284.13 57.9543 284.137 57.7476C284.144 57.5343 284.15 57.331 284.157 57.1376C284.17 56.9376 284.18 56.761 284.187 56.6076C284.194 56.4543 284.2 56.341 284.207 56.2676H284.167L280.227 62.2076H279.227V55.0676ZM302.353 62.2076H301.453V58.8776H297.793V62.2076H296.893V55.0676H297.793V58.0876H301.453V55.0676H302.353V62.2076Z" fill="#77878B"/>
</svg>
