<svg width="220" height="54" viewBox="0 0 220 54" fill="none" xmlns="http://www.w3.org/2000/svg">
<path d="M7.5343 28.1061V18.1976M7.5343 18.1976V16.6101C7.5343 9.65465 14.5115 5.05634 20.5936 8.00339M7.5343 18.1976H20.5936M29.6347 5.31055V21.7661C29.6347 23.552 30.6521 25.1697 32.2291 25.8914C32.7834 26.145 33.3826 26.2761 33.9886 26.2761H41.7722M72.4706 5.31055L74.1458 21.6423L74.5198 24.4298C74.9954 27.9683 79.9118 27.9407 80.5938 24.4387C81.2505 21.0659 85.9585 20.9719 86.5241 24.3623C87.1025 27.827 91.9173 27.7901 92.4459 24.317L92.8529 21.6423L94.4706 5.31055M58.5413 7.1167L58.6402 7.1545C61.2555 8.15567 63.1552 10.5279 63.6217 13.3755L63.8817 14.9622C64.2274 17.072 63.9634 19.2406 63.1228 21.1953L62.6429 22.3113C61.9745 23.8656 60.8434 25.1575 59.4152 25.998L59.2993 26.0662C57.1338 27.3405 54.4967 27.4089 52.2724 26.2483C50.3885 25.2653 48.9956 23.5007 48.4397 21.3929L48.1825 20.4174C47.7973 18.9567 47.7379 17.4244 48.0088 15.9364L48.5473 12.9785C49.0241 10.3594 50.7608 8.17477 53.1508 7.18768C54.8774 6.47455 56.7978 6.44927 58.5413 7.1167Z" stroke="#2F3537" stroke-width="5"/>
<path d="M117.441 25.8052H109.056C105.727 25.8052 103.029 22.1022 103.029 17.5344M103.029 17.5344V16.7653C103.029 13.2905 104.321 10.0561 106.456 8.18795L107.027 7.68907C108.906 6.04475 111.281 5.90038 113.259 7.3103L114.231 8.00289C115.123 8.63856 115.786 9.74691 116.067 11.0706C116.755 14.3026 114.988 17.5344 112.535 17.5344H103.029Z" stroke="#2F3537" stroke-width="5"/>
<path d="M190.147 25.9347H181.762C178.434 25.9347 175.735 22.2318 175.735 17.664M175.735 17.664V16.8949C175.735 13.4201 177.028 10.1857 179.163 8.31751L179.733 7.81864C181.612 6.17432 183.988 6.02995 185.966 7.43987L186.937 8.13245C187.829 8.76813 188.493 9.87648 188.774 11.2002C189.461 14.4321 187.694 17.664 185.241 17.664H175.735ZM127.58 29.1188C127.58 22.1075 127.58 16.7958 127.58 12.8129M127.58 12.8129C127.58 2.92647 127.58 8.2767 127.58 5.16156M127.58 12.8129L128.879 10.5473C131.276 6.36692 137.233 6.74682 139.118 11.2002M155.784 0.550103V12.8129M155.784 12.8129L161.936 12.8561C164.674 12.8753 167.118 14.6366 168.089 17.2887C168.58 18.6303 168.652 20.0974 168.297 21.4839L168.257 21.6382C167.268 25.495 163.492 27.8331 159.744 26.9101L155.784 25.9347M155.784 12.8129V25.9347M155.784 29.1189V25.9347M209.397 0V12.2628M209.397 12.2628H203.473C200.672 12.2628 198.125 13.9461 196.944 16.5778L196.906 16.6608C196.133 18.3851 196.045 20.3555 196.663 22.1459C197.908 25.7528 201.651 27.7299 205.2 26.6553L209.397 25.3847M209.397 12.2628V25.3847M209.397 28.5688V25.3847" stroke="#2F3537" stroke-width="5"/>
<path d="M27.7232 41.6956H27.0244L24.9344 39.2692V41.6956H24.3521V36.9099H24.9344V39.229L26.9726 36.9099H27.6326L25.6268 39.2357L27.7232 41.6956ZM36.1426 36.9099C36.5265 36.9099 36.8479 36.9479 37.1067 37.0238C37.3698 37.0998 37.5661 37.2249 37.6955 37.3992C37.8292 37.5734 37.8961 37.8058 37.8961 38.0962C37.8961 38.2839 37.8615 38.4515 37.7926 38.5989C37.7279 38.742 37.6286 38.8626 37.4949 38.9609C37.3655 39.0547 37.2059 39.1195 37.0161 39.1552V39.1888C37.2102 39.2201 37.3849 39.2782 37.5402 39.363C37.6998 39.448 37.8249 39.5686 37.9155 39.725C38.0061 39.8814 38.0514 40.0847 38.0514 40.3349C38.0514 40.6254 37.9867 40.8734 37.8573 41.0789C37.7279 41.28 37.5423 41.4341 37.3008 41.5414C37.0635 41.6442 36.7788 41.6956 36.4467 41.6956H34.8226V36.9099H36.1426ZM36.259 38.9475C36.6559 38.9475 36.9276 38.8827 37.0743 38.7531C37.221 38.619 37.2943 38.4224 37.2943 38.1633C37.2943 37.8996 37.2037 37.712 37.0226 37.6002C36.8457 37.4841 36.561 37.426 36.1684 37.426H35.4049V38.9475H36.259ZM35.4049 39.4502V41.1862H36.3367C36.7465 41.1862 37.0312 41.1035 37.1908 40.9382C37.3504 40.7729 37.4302 40.5561 37.4302 40.288C37.4302 40.1182 37.3935 39.9708 37.3202 39.8456C37.2512 39.7206 37.1326 39.6244 36.9643 39.5574C36.8004 39.486 36.5761 39.4502 36.2914 39.4502H35.4049ZM46.8021 41.6956H45.1327V41.347L45.6763 41.2197V37.3925L45.1327 37.2584V36.9099H46.8021V37.2584L46.2586 37.3925V41.2197L46.8021 41.347V41.6956ZM55.6272 41.6956H55.0448V37.4394H53.6019V36.9099H57.0637V37.4394H55.6272V41.6956ZM67.6021 41.6956H66.9033L64.8133 39.2692V41.6956H64.2309V36.9099H64.8133V39.229L66.8515 36.9099H67.5115L65.5056 39.2357L67.6021 41.6956ZM78.606 39.296C78.606 39.6669 78.5607 40.0043 78.4701 40.3081C78.3795 40.6075 78.2436 40.8667 78.0625 41.0856C77.8858 41.3046 77.6639 41.4722 77.396 41.5883C77.1333 41.7045 76.8266 41.7626 76.4772 41.7626C76.1148 41.7626 75.8003 41.7045 75.5325 41.5883C75.2652 41.4677 75.0433 41.3001 74.866 41.0856C74.6893 40.8667 74.558 40.6053 74.4713 40.3014C74.3852 39.9976 74.3419 39.6602 74.3419 39.2893C74.3419 38.7978 74.4195 38.3688 74.5748 38.0024C74.7301 37.636 74.9656 37.35 75.2801 37.1445C75.5998 36.939 76.0009 36.8361 76.4836 36.8361C76.9456 36.8361 77.3339 36.939 77.6483 37.1445C77.9635 37.3455 78.2009 37.6315 78.3601 38.0024C78.5245 38.3688 78.606 38.8 78.606 39.296ZM74.9566 39.296C74.9566 39.6982 75.0109 40.0445 75.1183 40.3349C75.2264 40.6254 75.3927 40.8488 75.6166 41.0052C75.8456 41.1616 76.1323 41.2398 76.4772 41.2398C76.8266 41.2398 77.1113 41.1616 77.3313 41.0052C77.5558 40.8488 77.7221 40.6254 77.8295 40.3349C77.9376 40.0445 77.9913 39.6982 77.9913 39.296C77.9913 38.6928 77.8709 38.2214 77.6289 37.8817C77.3876 37.5377 77.0058 37.3656 76.4836 37.3656C76.1342 37.3656 75.8456 37.4439 75.6166 37.6002C75.3927 37.7522 75.2264 37.9734 75.1183 38.2638C75.0109 38.5498 74.9566 38.8938 74.9566 39.296ZM87.4209 36.9099C87.8046 36.9099 88.1262 36.9479 88.385 37.0238C88.6477 37.0998 88.8444 37.2249 88.9738 37.3992C89.1071 37.5734 89.1744 37.8058 89.1744 38.0962C89.1744 38.2839 89.1395 38.4515 89.0709 38.5989C89.0062 38.742 88.9065 38.8626 88.7732 38.9609C88.6438 39.0547 88.484 39.1195 88.2944 39.1552V39.1888C88.4885 39.2201 88.6632 39.2782 88.8185 39.363C88.9777 39.448 89.1032 39.5686 89.1938 39.725C89.2844 39.8814 89.3297 40.0847 89.3297 40.3349C89.3297 40.6254 89.265 40.8734 89.1356 41.0789C89.0062 41.28 88.8205 41.4341 88.5791 41.5414C88.3416 41.6442 88.0569 41.6956 87.725 41.6956H86.1009V36.9099H87.4209ZM87.5374 38.9475C87.934 38.9475 88.2058 38.8827 88.3526 38.7531C88.4989 38.619 88.5726 38.4224 88.5726 38.1633C88.5726 37.8996 88.4821 37.712 88.3009 37.6002C88.1236 37.4841 87.8389 37.426 87.4468 37.426H86.6832V38.9475H87.5374ZM86.6832 39.4502V41.1862H87.615C88.0246 41.1862 88.3093 41.1035 88.4691 40.9382C88.6283 40.7729 88.7085 40.5561 88.7085 40.288C88.7085 40.1182 88.6716 39.9708 88.5985 39.8456C88.5293 39.7206 88.4109 39.6244 88.2426 39.5574C88.0783 39.486 87.8544 39.4502 87.5697 39.4502H86.6832ZM96.7864 36.9099H97.3299V39.5373C97.3299 39.649 97.3273 39.7719 97.3235 39.9059C97.3235 40.0356 97.3209 40.1651 97.317 40.2947C97.3125 40.4243 97.306 40.5405 97.2976 40.6432C97.2931 40.7416 97.2885 40.8175 97.2846 40.8711H97.3105L99.8535 36.9099H100.501V41.6956H99.957V39.0949C99.957 38.9743 99.9589 38.8447 99.9635 38.7062C99.9673 38.5632 99.9719 38.4269 99.9764 38.2973C99.9848 38.1633 99.9913 38.0449 99.9958 37.9421C99.9997 37.8393 100.004 37.7634 100.009 37.7142H99.9829L97.4335 41.6956H96.7864V36.9099ZM111.368 35.4219C111.351 35.6453 111.297 35.833 111.206 35.9849C111.12 36.1368 110.991 36.2508 110.818 36.3267C110.646 36.4027 110.421 36.4407 110.145 36.4407C109.865 36.4407 109.638 36.4027 109.466 36.3267C109.297 36.2508 109.174 36.1391 109.097 35.9916C109.019 35.8397 108.972 35.6498 108.954 35.4219H109.485C109.507 35.6632 109.567 35.8263 109.666 35.9112C109.77 35.9916 109.934 36.0318 110.158 36.0318C110.357 36.0318 110.512 35.9894 110.624 35.9045C110.74 35.8151 110.809 35.6543 110.831 35.4219H111.368ZM108.223 36.9099H108.767V39.5373C108.767 39.649 108.765 39.7719 108.76 39.9059C108.76 40.0356 108.758 40.1651 108.754 40.2947C108.75 40.4243 108.743 40.5405 108.734 40.6432C108.73 40.7416 108.726 40.8175 108.721 40.8711H108.747L111.29 36.9099H111.937V41.6956H111.394V39.0949C111.394 38.9743 111.396 38.8447 111.4 38.7062C111.405 38.5632 111.409 38.4269 111.413 38.2973C111.422 38.1633 111.429 38.0449 111.433 37.9421C111.437 37.8393 111.442 37.7634 111.446 37.7142H111.42L108.87 41.6956H108.223V36.9099ZM129.477 41.6956L127.957 37.4997H127.931C127.94 37.5891 127.946 37.7031 127.95 37.8415C127.959 37.9801 127.966 38.132 127.969 38.2973C127.974 38.4582 127.976 38.6235 127.976 38.7933V41.6956H127.439V36.9099H128.299L129.723 40.8309H129.749L131.198 36.9099H132.052V41.6956H131.477V38.7531C131.477 38.5967 131.479 38.4426 131.483 38.2906C131.488 38.1342 131.494 37.989 131.502 37.8549C131.511 37.7165 131.518 37.6002 131.522 37.5064H131.496L129.956 41.6956H129.477ZM142.679 41.6956L142.123 40.2143H140.291L139.741 41.6956H139.153L140.958 36.8898H141.482L143.281 41.6956H142.679ZM141.43 38.2303C141.417 38.1946 141.395 38.1297 141.366 38.0359C141.335 37.9421 141.305 37.846 141.275 37.7477C141.249 37.6449 141.227 37.5667 141.21 37.5131C141.188 37.6025 141.165 37.6941 141.139 37.7879C141.117 37.8773 141.094 37.96 141.068 38.0359C141.046 38.1119 141.026 38.1767 141.01 38.2303L140.486 39.6781H141.948L141.43 38.2303ZM152.991 36.9099V37.4461H150.965V41.6956H150.383V36.9099H152.991ZM162.691 41.6956L162.134 40.2143H160.303L159.753 41.6956H159.164L160.969 36.8898H161.494L163.292 41.6956H162.691ZM161.442 38.2303C161.429 38.1946 161.408 38.1297 161.377 38.0359C161.347 37.9421 161.317 37.846 161.287 37.7477C161.261 37.6449 161.239 37.5667 161.222 37.5131C161.2 37.6025 161.177 37.6941 161.151 37.7879C161.129 37.8773 161.105 37.96 161.079 38.0359C161.058 38.1119 161.039 38.1767 161.021 38.2303L160.497 39.6781H161.959L161.442 38.2303ZM173.126 38.0292C173.126 38.3554 173.027 38.6146 172.828 38.8067C172.629 38.9944 172.364 39.115 172.032 39.1687V39.1955C172.42 39.2491 172.716 39.3742 172.919 39.5708C173.121 39.7675 173.223 40.0244 173.223 40.3416C173.223 40.6231 173.154 40.8711 173.016 41.0856C172.878 41.2957 172.671 41.461 172.395 41.5816C172.118 41.7023 171.773 41.7626 171.359 41.7626C171.109 41.7626 170.869 41.7425 170.641 41.7023C170.417 41.6665 170.208 41.5995 170.013 41.5012V40.9516C170.147 41.0186 170.29 41.0767 170.44 41.1258C170.596 41.1705 170.751 41.2063 170.906 41.2331C171.062 41.2555 171.21 41.2666 171.353 41.2666C171.767 41.2666 172.079 41.1862 172.291 41.0253C172.507 40.8644 172.615 40.6365 172.615 40.3416C172.615 40.0378 172.49 39.8166 172.239 39.6781C171.989 39.5396 171.639 39.4703 171.191 39.4703H170.531V38.9676H171.159C171.465 38.9676 171.717 38.9319 171.916 38.8603C172.118 38.7889 172.27 38.6883 172.369 38.5587C172.472 38.4247 172.524 38.2683 172.524 38.0895C172.524 37.8482 172.438 37.6628 172.265 37.5332C172.092 37.4036 171.869 37.3388 171.592 37.3388C171.303 37.3388 171.062 37.3768 170.868 37.4528C170.678 37.5288 170.492 37.627 170.311 37.7477L170.033 37.3388C170.154 37.245 170.292 37.1624 170.447 37.0908C170.607 37.0149 170.783 36.9546 170.978 36.9099C171.172 36.8652 171.379 36.8428 171.599 36.8428C171.931 36.8428 172.209 36.8942 172.433 36.997C172.662 37.0998 172.835 37.2406 172.951 37.4193C173.068 37.5935 173.126 37.7969 173.126 38.0292ZM180.676 36.9099H181.22V39.5373C181.22 39.649 181.218 39.7719 181.213 39.9059C181.213 40.0356 181.211 40.1651 181.207 40.2947C181.202 40.4243 181.196 40.5405 181.187 40.6432C181.183 40.7416 181.179 40.8175 181.175 40.8711H181.2L183.743 36.9099H184.39V41.6956H183.847V39.0949C183.847 38.9743 183.849 38.8447 183.853 38.7062C183.858 38.5632 183.862 38.4269 183.866 38.2973C183.875 38.1633 183.881 38.0449 183.886 37.9421C183.89 37.8393 183.894 37.7634 183.899 37.7142H183.873L181.323 41.6956H180.676V36.9099ZM195.64 41.6956H195.058V39.4636H192.69V41.6956H192.107V36.9099H192.69V38.9341H195.058V36.9099H195.64V41.6956Z" fill="#77878B"/>
</svg>
